# File created by Blade
# Date/Time:  Tue Sep 28 14:35:47 2010
#---------------------------------------------------------
:version 1.10
:name HOM
:units
  mass 1.0
  length 1.000000
  angle deg
:documentation
     Acclaim Skeleton File
:root
   axis xyz
   order TX TY TZ RX RY RZ
   position 0.000000 0.000000 0.000000
   orientation 0 0 0
:bonedata
   begin
      id 1
      name LeftUpLeg_dum
      direction 1.000000 0.000000 0.000000
      length 3.677894
      axis 0.0 0.0 0.0 xyz
   end
   begin
      id 2
      name RightUpLeg_dum
      direction -1.000000 0.000000 0.000000
      length 3.677894
      axis 0.0 0.0 0.0 xyz
   end
   begin
      id 3
      name Spine_dum
      direction 0.000000 1.000000 0.000000
      length 0.039370
      axis 0.0 0.0 0.0 xyz
   end
   begin
      id 4
      name LeftUpLeg
      direction 0.000000 -1.000000 0.000000
      length 18.389491
      axis 0.0 0.0 0.0 xyz
      dof rx ry rz
   end
   begin
      id 5
      name LeftLeg
      direction 0.000000 -1.000000 0.000000
      length 16.918313
      axis 0.0 0.0 0.0 xyz
      dof rx ry rz
   end
   begin
      id 6
      name LeftFoot
      direction 0.000000 -0.258819 0.965926
      length 6.436326
      axis 15.0 0.0 0.0 xyz
      dof rx ry rz
   end
   begin
      id 7
      name LeftToeBase
      direction 0.000000 0.000000 1.000000
      length 2.952750
      axis 0.0 0.0 0.0 xyz
      dof rx ry rz
   end
   begin
      id 8
      name RightUpLeg
      direction 0.000000 -1.000000 0.000000
      length 18.389491
      axis 0.0 0.0 0.0 xyz
      dof rx ry rz
   end
   begin
      id 9
      name RightLeg
      direction 0.000000 -1.000000 0.000000
      length 16.918313
      axis 0.0 0.0 0.0 xyz
      dof rx ry rz
   end
   begin
      id 10
      name RightFoot
      direction 0.000000 -0.258819 0.965926
      length 6.436326
      axis 15.0 0.0 0.0 xyz
      dof rx ry rz
   end
   begin
      id 11
      name RightToeBase
      direction 0.000000 0.000000 1.000000
      length 2.952750
      axis 0.0 0.0 0.0 xyz
      dof rx ry rz
   end
   begin
      id 12
      name Spine
      direction 0.000000 1.000000 0.000000
      length 9.194745
      axis 0.0 0.0 0.0 xyz
      dof rx ry rz
   end
   begin
      id 13
      name Spine1
      direction 0.000000 1.000000 0.000000
      length 0.000000
      axis 0.0 0.0 0.0 xyz
      dof rx ry rz
   end
   begin
      id 14
      name Spine1_dum1
      direction 0.000000 1.000000 0.000000
      length 9.194745
      axis 0.0 0.0 0.0 xyz
   end
   begin
      id 15
      name Spine1_dum2
      direction 0.000000 1.000000 0.000000
      length 9.194745
      axis 0.0 0.0 0.0 xyz
   end
   begin
      id 16
      name Spine1_dum3
      direction 0.000000 1.000000 0.000000
      length 9.194745
      axis 0.0 0.0 0.0 xyz
   end
   begin
      id 17
      name Neck
      direction 0.000000 1.000000 0.000000
      length 4.229598
      axis 0.0 0.0 0.0 xyz
      dof rx ry rz
   end
   begin
      id 18
      name Head
      direction 0.000000 1.000000 0.000000
      length 4.527550
      axis 0.0 0.0 0.0 xyz
      dof rx ry rz
   end
   begin
      id 19
      name LeftShoulder
      direction 1.000000 -0.000004 0.000000
      length 5.516839
      axis 0.0 0.0 -90.0 xyz
      dof rx ry rz
   end
   begin
      id 20
      name LeftArm
      direction 1.000000 -0.000004 0.000000
      length 11.033679
      axis 0.0 0.0 -90.0 xyz
      dof rx ry rz
   end
   begin
      id 21
      name LeftForeArm
      direction 1.000000 -0.000004 0.000000
      length 10.114232
      axis 0.0 0.0 -90.0 xyz
      dof rx ry rz
   end
   begin
      id 22
      name LeftHand
      direction 0.000000 0.000000 0.000000
      length 0.000000
      axis 0.0 0.0 -90.0 xyz
      dof rx ry rz
   end
   begin
      id 23
      name LeftHand_dum1
      direction 0.000000 0.000000 0.000000
      length 0.000000
      axis 0.0 0.0 -90.0 xyz
   end
   begin
      id 24
      name LeftHand_dum2
      direction 1.000000 -0.000004 0.000000
      length 3.937000
      axis 0.0 0.0 -90.0 xyz
   end
   begin
      id 25
      name LeftHandThumb
      direction 0.000000 0.000000 1.000000
      length 3.937000
      axis 0.0 0.0 -90.0 xyz
      dof rx ry rz
   end
   begin
      id 26
      name RightShoulder
      direction -1.000000 -0.000004 0.000000
      length 5.516839
      axis 0.0 0.0 90.0 xyz
      dof rx ry rz
   end
   begin
      id 27
      name RightArm
      direction -1.000000 -0.000004 0.000000
      length 11.033679
      axis 0.0 0.0 90.0 xyz
      dof rx ry rz
   end
   begin
      id 28
      name RightForeArm
      direction -1.000000 -0.000004 0.000000
      length 10.114232
      axis 0.0 0.0 90.0 xyz
      dof rx ry rz
   end
   begin
      id 29
      name RightHand
      direction 0.000000 0.000000 0.000000
      length 0.000000
      axis 0.0 0.0 90.0 xyz
      dof rx ry rz
   end
   begin
      id 30
      name RightHand_dum1
      direction 0.000000 0.000000 0.000000
      length 0.000000
      axis 0.0 0.0 90.0 xyz
   end
   begin
      id 31
      name RightHand_dum2
      direction -1.000000 -0.000004 0.000000
      length 5.393690
      axis 0.0 0.0 90.0 xyz
   end
   begin
      id 32
      name RightHandThumb
      direction 0.000000 0.000000 1.000000
      length 3.937000
      axis 0.0 0.0 90.0 xyz
      dof rx ry rz
   end
:hierarchy
   begin
      root LeftUpLeg_dum RightUpLeg_dum Spine_dum
      LeftUpLeg_dum LeftUpLeg
      RightUpLeg_dum RightUpLeg
      Spine_dum Spine
      LeftUpLeg LeftLeg
      LeftLeg LeftFoot
      LeftFoot LeftToeBase
      RightUpLeg RightLeg
      RightLeg RightFoot
      RightFoot RightToeBase
      Spine Spine1
      Spine1 Spine1_dum1 Spine1_dum2 Spine1_dum3
      Spine1_dum1 Neck
      Spine1_dum2 LeftShoulder
      Spine1_dum3 RightShoulder
      Neck Head
      LeftShoulder LeftArm
      LeftArm LeftForeArm
      LeftForeArm LeftHand
      LeftHand LeftHand_dum1 LeftHand_dum2
      LeftHand_dum1 LeftHandThumb
      RightShoulder RightArm
      RightArm RightForeArm
      RightForeArm RightHand
      RightHand RightHand_dum1 RightHand_dum2
      RightHand_dum1 RightHandThumb
   end

# File created by Blade
# Date/Time:  Tue Sep 28 14:35:42 2010
# Frame Rate: 200.000 fps
#------------------------------------------------------
:FULLY-SPECIFIED
:DEGREES
401
root  0.283996 36.022986 -41.612437 7.212707 5.829946 -10.285390
LeftUpLeg  -2.004630 5.598102 12.061578
LeftLeg  39.583726 -0.000000 0.000000
LeftFoot  3.124983 9.478368 11.249370
LeftToeBase  -34.514591 0.000000 -0.000000
RightUpLeg  -32.780516 -23.611690 21.935120
RightLeg  18.498287 -0.000000 0.000000
RightFoot  5.503221 3.439244 -16.251427
RightToeBase  -7.541811 0.000000 -0.000000
Spine  -14.995333 -4.871970 6.109274
Spine1  16.971074 -5.943096 8.766369
Neck  7.102211 2.323803 -9.418977
Head  -11.940280 2.023718 2.085716
LeftShoulder  -4.500343 -9.445944 -32.185745
LeftArm  2.626711 43.547376 -33.475301
LeftForeArm  32.654259 -0.000000 0.000000
LeftHand  6.037944 -8.812302 2.404640
LeftHandThumb  0.000000 -0.000000 0.000000
RightShoulder  1.532494 8.086798 20.883152
RightArm  -2.596053 -38.789331 40.366696
RightForeArm  38.337376 -0.000000 0.000000
RightHand  8.261437 13.134089 -0.882042
RightHandThumb  0.000000 -0.000000 0.000000
402
root  0.257205 36.057730 -41.369676 7.169093 5.640110 -10.310919
LeftUpLeg  -2.325304 5.648032 12.101625
LeftLeg  40.458493 -0.000000 0.000000
LeftFoot  4.901294 9.309503 11.176499
LeftToeBase  -35.460559 0.000000 -0.000000
RightUpLeg  -32.623190 -23.656317 21.906140
RightLeg  19.031674 -0.000000 0.000000
RightFoot  5.500103 3.511052 -16.360505
RightToeBase  -7.627199 0.000000 -0.000000
Spine  -14.982228 -4.798304 6.233881
Spine1  16.896168 -5.915851 8.730258
Neck  6.937535 2.382703 -9.294362
Head  -11.483983 2.035711 1.844174
LeftShoulder  -4.633844 -9.059893 -32.314238
LeftArm  2.646209 43.311884 -33.574158
LeftForeArm  32.086361 -0.000000 0.000000
LeftHand  5.987998 -8.565072 2.369970
LeftHandThumb  0.000000 -0.000000 0.000000
RightShoulder  1.616888 8.172970 20.850064
RightArm  -2.554702 -38.924166 40.385827
RightForeArm  38.431178 -0.000000 0.000000
RightHand  8.443762 13.073455 -0.771852
RightHandThumb  0.000000 -0.000000 0.000000
403
root  0.230212 36.094762 -41.127088 7.132875 5.426870 -10.337107
LeftUpLeg  -2.636326 5.797294 12.157190
LeftLeg  41.275306 -0.000000 0.000000
LeftFoot  6.640911 9.093892 11.175924
LeftToeBase  -35.950046 0.000000 -0.000000
RightUpLeg  -32.452309 -23.706936 21.887197
RightLeg  19.528827 -0.000000 0.000000
RightFoot  5.459477 3.613363 -16.618390
RightToeBase  -7.814705 0.000000 -0.000000
Spine  -14.972016 -4.716824 6.361018
Spine1  16.805946 -5.880793 8.689607
Neck  7.010304 2.413007 -9.281689
Head  -11.373649 2.136199 1.773480
LeftShoulder  -4.747256 -8.887300 -32.398818
LeftArm  2.504374 43.399105 -33.776187
LeftForeArm  31.533946 -0.000000 0.000000
LeftHand  5.821038 -7.992409 2.292118
LeftHandThumb  0.000000 -0.000000 0.000000
RightShoulder  1.641604 8.070617 20.773537
RightArm  -2.481982 -38.958031 40.390296
RightForeArm  38.762718 -0.000000 0.000000
RightHand  8.371586 13.298454 -0.912910
RightHandThumb  0.000000 -0.000000 0.000000
404
root  0.203148 36.133810 -40.882958 7.097488 5.206646 -10.360698
LeftUpLeg  -2.960444 5.986014 12.227701
LeftLeg  42.075534 -0.000000 0.000000
LeftFoot  8.492770 8.876250 11.341989
LeftToeBase  -36.384616 0.000000 -0.000000
RightUpLeg  -32.217890 -23.671186 21.821465
RightLeg  19.971870 -0.000000 0.000000
RightFoot  5.378301 3.694824 -16.724139
RightToeBase  -7.735445 0.000000 -0.000000
Spine  -14.966661 -4.619682 6.484612
Spine1  16.684848 -5.826424 8.648621
Neck  7.133504 2.442882 -9.292343
Head  -11.271738 2.243667 1.756675
LeftShoulder  -4.895125 -8.647525 -32.455226
LeftArm  2.391360 43.415223 -33.988646
LeftForeArm  30.991651 -0.000000 0.000000
LeftHand  5.540050 -8.027194 2.360763
LeftHandThumb  0.000000 -0.000000 0.000000
RightShoulder  1.718826 8.162787 20.695815
RightArm  -2.495438 -39.225220 40.466028
RightForeArm  38.893286 -0.000000 0.000000
RightHand  8.494245 13.319875 -0.703740
RightHandThumb  0.000000 -0.000000 0.000000
405
root  0.176869 36.174069 -40.640610 7.069624 4.948290 -10.389168
LeftUpLeg  -3.292244 6.299106 12.334236
LeftLeg  42.879163 -0.000000 0.000000
LeftFoot  10.268231 8.437144 11.662382
LeftToeBase  -35.868412 0.000000 -0.000000
RightUpLeg  -31.940237 -23.647781 21.763986
RightLeg  20.323641 -0.000000 0.000000
RightFoot  5.179838 3.763679 -16.814791
RightToeBase  -7.526854 0.000000 -0.000000
Spine  -14.952895 -4.501174 6.621351
Spine1  16.554096 -5.756613 8.592543
Neck  7.299904 2.434715 -9.303911
Head  -11.263721 2.340073 1.746654
LeftShoulder  -5.050362 -8.519985 -32.467846
LeftArm  2.222330 43.496108 -34.280577
LeftForeArm  30.448388 -0.000000 0.000000
LeftHand  5.353480 -7.498081 2.119886
LeftHandThumb  0.000000 -0.000000 0.000000
RightShoulder  1.772174 8.120277 20.592307
RightArm  -2.440610 -39.334973 40.551068
RightForeArm  39.037728 -0.000000 0.000000
RightHand  8.589303 13.520795 -0.747749
RightHandThumb  0.000000 -0.000000 0.000000
